<svg id="Download_on_the_App_Store_RGB_blk" xmlns="http://www.w3.org/2000/svg" width="260" height="86.91" viewBox="0 0 260 86.91">
  <g id="Group_60" data-name="Group 60" transform="translate(0 0)">
    <g id="Group_58" data-name="Group 58">
      <path id="Path_116" data-name="Path 116" d="M239.3,0H20.716c-.8,0-1.584,0-2.379,0-.665,0-1.325.017-2,.028a28.712,28.712,0,0,0-4.354.384,14.482,14.482,0,0,0-4.13,1.362A13.988,13.988,0,0,0,4.34,4.339,13.6,13.6,0,0,0,1.78,7.861,14.343,14.343,0,0,0,.422,12a28.231,28.231,0,0,0-.389,4.35c-.02.666-.022,1.335-.033,2V68.569c.011.675.013,1.328.033,2a28.229,28.229,0,0,0,.389,4.35A14.313,14.313,0,0,0,1.78,79.059a13.488,13.488,0,0,0,2.56,3.507,13.633,13.633,0,0,0,3.517,2.561,14.559,14.559,0,0,0,4.13,1.371,29.232,29.232,0,0,0,4.354.384c.672.015,1.331.023,2,.023.795,0,1.582,0,2.379,0H239.3c.781,0,1.574,0,2.355,0,.662,0,1.341-.008,2-.023A28.85,28.85,0,0,0,248,86.5a14.784,14.784,0,0,0,4.146-1.371,13.64,13.64,0,0,0,3.514-2.561,13.9,13.9,0,0,0,2.567-3.507,14.349,14.349,0,0,0,1.345-4.138,29.345,29.345,0,0,0,.4-4.35c.008-.675.008-1.328.008-2,.017-.789.017-1.574.017-2.377V20.72c0-.8,0-1.585-.017-2.372,0-.666,0-1.335-.008-2a29.344,29.344,0,0,0-.4-4.35,14.379,14.379,0,0,0-1.345-4.135,14.049,14.049,0,0,0-6.081-6.083A14.7,14.7,0,0,0,248,.416a28.341,28.341,0,0,0-4.345-.384c-.662-.011-1.341-.023-2-.028-.781,0-1.574,0-2.355,0Z" transform="translate(0 0)" fill="#a6a6a6"/>
      <path id="Path_117" data-name="Path 117" d="M17.325,83.982c-.662,0-1.308-.008-1.965-.023A27.567,27.567,0,0,1,11.3,83.6a12.784,12.784,0,0,1-3.6-1.19,11.745,11.745,0,0,1-3.035-2.209,11.561,11.561,0,0,1-2.217-3.034,12.432,12.432,0,0,1-1.18-3.6A26.971,26.971,0,0,1,.9,69.5c-.014-.458-.032-1.984-.032-1.984V17.321s.019-1.5.032-1.944a26.877,26.877,0,0,1,.36-4.068A12.505,12.505,0,0,1,2.445,7.7,11.675,11.675,0,0,1,4.651,4.661,12.092,12.092,0,0,1,7.7,2.44,12.652,12.652,0,0,1,11.29,1.258,27.346,27.346,0,0,1,15.365.9L17.326.875h223.29L242.6.9a26.91,26.91,0,0,1,4.038.353,12.9,12.9,0,0,1,3.63,1.19A12.154,12.154,0,0,1,255.515,7.7a12.522,12.522,0,0,1,1.163,3.583,28.237,28.237,0,0,1,.378,4.1c.006.615.006,1.276.006,1.934.017.815.017,1.59.017,2.372V65.166c0,.789,0,1.56-.017,2.336,0,.707,0,1.354-.008,2.02a27.665,27.665,0,0,1-.371,4.027,12.468,12.468,0,0,1-1.173,3.628,11.908,11.908,0,0,1-2.207,3.011,11.761,11.761,0,0,1-3.041,2.222,12.736,12.736,0,0,1-3.624,1.195,27.252,27.252,0,0,1-4.061.354c-.636.015-1.3.023-1.95.023l-2.355,0Z" transform="translate(1.024 1.026)"/>
    </g>
    <g id="_Group_" data-name="&lt;Group&gt;" transform="translate(21.666 18.947)">
      <g id="_Group_2" data-name="&lt;Group&gt;">
        <g id="_Group_3" data-name="&lt;Group&gt;">
          <path id="_Path_" data-name="&lt;Path&gt;" d="M42.122,27.721a10.753,10.753,0,0,1,5.12-9.021,11.006,11.006,0,0,0-8.672-4.688c-3.649-.383-7.186,2.183-9.045,2.183-1.9,0-4.758-2.145-7.84-2.082a11.549,11.549,0,0,0-9.719,5.927c-4.2,7.275-1.068,17.967,2.958,23.848,2.014,2.88,4.368,6.1,7.447,5.982,3.014-.125,4.139-1.922,7.777-1.922,3.6,0,4.66,1.922,7.8,1.849,3.234-.052,5.271-2.892,7.215-5.8a23.818,23.818,0,0,0,3.3-6.719,10.39,10.39,0,0,1-6.343-9.558Z" transform="translate(-9.972 -2.56)" fill="#fff"/>
          <path id="_Path_2" data-name="&lt;Path&gt;" d="M25.845,16.3A10.587,10.587,0,0,0,28.266,8.72,10.771,10.771,0,0,0,21.3,12.326a10.074,10.074,0,0,0-2.485,7.3A8.906,8.906,0,0,0,25.845,16.3Z" transform="translate(0.371 -8.72)" fill="#fff"/>
        </g>
      </g>
      <g id="Group_59" data-name="Group 59" transform="translate(53.136 19.882)">
        <path id="Path_118" data-name="Path 118" d="M51.538,37.767H41.253l-2.47,7.293H34.427l9.741-26.981h4.526l9.741,26.981h-4.43ZM42.318,34.4H50.47L46.452,22.566h-.112Z" transform="translate(-34.427 -17.628)" fill="#fff"/>
        <path id="Path_119" data-name="Path 119" d="M65.161,31.392c0,6.113-3.272,10.04-8.209,10.04a6.669,6.669,0,0,1-6.189-3.442h-.093v9.743H46.631V21.555H50.54v3.272h.074a6.978,6.978,0,0,1,6.264-3.478C61.87,21.35,65.161,25.3,65.161,31.392Zm-4.15,0c0-3.983-2.058-6.6-5.2-6.6-3.085,0-5.16,2.674-5.16,6.6,0,3.964,2.075,6.618,5.16,6.618,3.14,0,5.2-2.6,5.2-6.618Z" transform="translate(-20.115 -13.796)" fill="#fff"/>
        <path id="Path_120" data-name="Path 120" d="M75.126,31.392c0,6.113-3.272,10.04-8.209,10.04a6.669,6.669,0,0,1-6.189-3.442h-.093v9.743H56.6V21.555H60.5v3.272h.074a6.978,6.978,0,0,1,6.264-3.478C71.835,21.35,75.126,25.3,75.126,31.392Zm-4.15,0c0-3.983-2.058-6.6-5.2-6.6-3.085,0-5.16,2.674-5.16,6.6,0,3.964,2.075,6.618,5.16,6.618,3.14,0,5.2-2.6,5.2-6.618Z" transform="translate(-8.429 -13.796)" fill="#fff"/>
        <path id="Path_121" data-name="Path 121" d="M73.941,37.784c.3,2.676,2.9,4.432,6.45,4.432,3.4,0,5.852-1.757,5.852-4.169,0-2.094-1.477-3.348-4.974-4.208L77.774,33c-4.954-1.2-7.255-3.514-7.255-7.274,0-4.655,4.057-7.853,9.818-7.853,5.7,0,9.61,3.2,9.741,7.853H86c-.244-2.693-2.47-4.318-5.723-4.318S74.8,23.05,74.8,25.444c0,1.908,1.422,3.03,4.9,3.889l2.973.73c5.536,1.309,7.836,3.533,7.836,7.479,0,5.048-4.021,8.209-10.416,8.209-5.984,0-10.023-3.087-10.284-7.967Z" transform="translate(7.065 -17.871)" fill="#fff"/>
        <path id="Path_122" data-name="Path 122" d="M87.08,19.3v4.655h3.741v3.2H87.08V38c0,1.685.749,2.47,2.393,2.47a12.616,12.616,0,0,0,1.328-.093v3.178a11.088,11.088,0,0,1-2.243.187c-3.983,0-5.536-1.5-5.536-5.311V27.153h-2.86v-3.2h2.86V19.3Z" transform="translate(19.209 -16.195)" fill="#fff"/>
        <path id="Path_123" data-name="Path 123" d="M86.065,31.41c0-6.189,3.645-10.079,9.33-10.079,5.7,0,9.332,3.889,9.332,10.079,0,6.206-3.609,10.079-9.332,10.079S86.065,37.616,86.065,31.41Zm14.547,0c0-4.246-1.946-6.752-5.218-6.752s-5.215,2.525-5.215,6.752c0,4.263,1.944,6.75,5.215,6.75s5.218-2.487,5.218-6.75Z" transform="translate(26.131 -13.813)" fill="#fff"/>
        <path id="Path_124" data-name="Path 124" d="M96.186,21.555h3.851V24.9h.093a4.692,4.692,0,0,1,4.732-3.554,6.227,6.227,0,0,1,1.383.151v3.777a5.645,5.645,0,0,0-1.814-.244,4.069,4.069,0,0,0-4.208,4.526V41.227H96.186Z" transform="translate(38 -13.796)" fill="#fff"/>
        <path id="Path_125" data-name="Path 125" d="M118.962,35.467c-.543,3.571-4.021,6.022-8.47,6.022-5.723,0-9.274-3.834-9.274-9.985,0-6.17,3.571-10.172,9.1-10.172,5.442,0,8.865,3.739,8.865,9.7v1.383H105.293v.244a5.123,5.123,0,0,0,5.292,5.572,4.451,4.451,0,0,0,4.543-2.767ZM105.312,29.6h9.835a4.731,4.731,0,0,0-4.825-4.993,4.98,4.98,0,0,0-5.009,4.993Z" transform="translate(43.9 -13.813)" fill="#fff"/>
      </g>
    </g>
  </g>
  <g id="_Group_4" data-name="&lt;Group&gt;" transform="translate(77.504 18.332)">
    <g id="Group_61" data-name="Group 61">
      <path id="Path_126" data-name="Path 126" d="M40.354,8.739a5.735,5.735,0,0,1,6.1,6.442c0,4.142-2.239,6.523-6.1,6.523H35.671V8.739ZM37.685,19.87h2.444A4.076,4.076,0,0,0,44.4,15.207a4.087,4.087,0,0,0-4.275-4.636H37.685Z" transform="translate(-35.671 -8.1)" fill="#fff"/>
      <path id="Path_127" data-name="Path 127" d="M41.693,15.184a4.635,4.635,0,1,1,9.228,0,4.636,4.636,0,1,1-9.228,0Zm7.242,0c0-2.121-.953-3.361-2.625-3.361s-2.623,1.24-2.623,3.361c0,2.138.944,3.368,2.623,3.368S48.934,17.314,48.934,15.184Z" transform="translate(-28.635 -6.477)" fill="#fff"/>
      <path id="Path_128" data-name="Path 128" d="M57.442,19.979h-2l-2.022-7.206h-.153L51.25,19.979H49.266l-2.7-9.784h1.958L50.28,17.66h.144l2.011-7.466h1.852L56.3,17.66h.153L58.2,10.195h1.931Z" transform="translate(-22.89 -6.375)" fill="#fff"/>
      <path id="Path_129" data-name="Path 129" d="M53.853,10.3h1.859v1.554h.144a2.929,2.929,0,0,1,2.92-1.743,3.182,3.182,0,0,1,3.386,3.639v6.334H60.232V14.237c0-1.572-.683-2.354-2.111-2.354a2.244,2.244,0,0,0-2.336,2.479v5.724H53.854Z" transform="translate(-14.347 -6.483)" fill="#fff"/>
      <path id="Path_130" data-name="Path 130" d="M59.094,8.437h1.931v13.6H59.094Z" transform="translate(-8.202 -8.437)" fill="#fff"/>
      <path id="Path_131" data-name="Path 131" d="M61.23,15.184a4.635,4.635,0,1,1,9.229,0,4.636,4.636,0,1,1-9.229,0Zm7.242,0c0-2.121-.953-3.361-2.625-3.361s-2.623,1.24-2.623,3.361c0,2.138.944,3.368,2.623,3.368S68.471,17.314,68.471,15.184Z" transform="translate(-5.723 -6.478)" fill="#fff"/>
      <path id="Path_132" data-name="Path 132" d="M66.4,17.314c0-1.761,1.311-2.776,3.639-2.921l2.65-.153V13.4c0-1.033-.683-1.617-2-1.617-1.078,0-1.825.4-2.039,1.087H66.779c.2-1.68,1.778-2.758,4-2.758,2.453,0,3.836,1.221,3.836,3.288V20.08H72.754V18.706H72.6a3.292,3.292,0,0,1-2.939,1.536A2.955,2.955,0,0,1,66.4,17.314Zm6.289-.836V15.66l-2.389.153c-1.347.09-1.958.548-1.958,1.411,0,.881.764,1.393,1.814,1.393a2.306,2.306,0,0,0,2.533-2.139Z" transform="translate(0.368 -6.477)" fill="#fff"/>
      <path id="Path_133" data-name="Path 133" d="M71.348,17.144c0-3.091,1.589-5.05,4.061-5.05a3.224,3.224,0,0,1,3,1.716h.144V8.437h1.931v13.6h-1.85V20.494h-.153A3.4,3.4,0,0,1,75.409,22.2C72.92,22.2,71.348,20.243,71.348,17.144Zm1.995,0c0,2.075.978,3.324,2.614,3.324S78.59,19.2,78.59,17.152s-1.016-3.324-2.633-3.324-2.614,1.257-2.614,3.315Z" transform="translate(6.169 -8.437)" fill="#fff"/>
      <path id="Path_134" data-name="Path 134" d="M79.242,15.184a4.635,4.635,0,1,1,9.228,0,4.636,4.636,0,1,1-9.228,0Zm7.242,0c0-2.121-.953-3.361-2.625-3.361s-2.622,1.24-2.622,3.361c0,2.138.944,3.368,2.622,3.368S86.484,17.314,86.484,15.184Z" transform="translate(15.401 -6.477)" fill="#fff"/>
      <path id="Path_135" data-name="Path 135" d="M84.669,10.3h1.859v1.554h.144a2.929,2.929,0,0,1,2.92-1.743,3.182,3.182,0,0,1,3.386,3.639v6.334H91.048V14.237c0-1.572-.683-2.354-2.111-2.354A2.244,2.244,0,0,0,86.6,14.362v5.724H84.67Z" transform="translate(21.792 -6.483)" fill="#fff"/>
      <path id="Path_136" data-name="Path 136" d="M95.4,9.074v2.48h2.12v1.626H95.4v5.031c0,1.025.422,1.474,1.383,1.474a6.445,6.445,0,0,0,.736-.045v1.608a6.335,6.335,0,0,1-1.05.1c-2.147,0-3-.755-3-2.642V13.18H91.911V11.554h1.553V9.074Z" transform="translate(30.284 -7.69)" fill="#fff"/>
      <path id="Path_137" data-name="Path 137" d="M95.7,8.437h1.914v5.392h.153a3.011,3.011,0,0,1,2.983-1.753,3.223,3.223,0,0,1,3.369,3.647V22.04h-1.933V16.2c0-1.563-.728-2.354-2.092-2.354a2.286,2.286,0,0,0-2.463,2.48V22.04H95.7Z" transform="translate(34.733 -8.437)" fill="#fff"/>
      <path id="Path_138" data-name="Path 138" d="M109.511,17.439a3.972,3.972,0,0,1-4.239,2.83,4.444,4.444,0,0,1-4.519-5.05,4.513,4.513,0,0,1,4.511-5.111c2.722,0,4.365,1.86,4.365,4.932v.674h-6.909v.108a2.586,2.586,0,0,0,2.606,2.8,2.345,2.345,0,0,0,2.328-1.186Zm-6.792-3.153h4.942a2.361,2.361,0,0,0-2.408-2.535,2.5,2.5,0,0,0-2.533,2.535Z" transform="translate(40.604 -6.477)" fill="#fff"/>
    </g>
  </g>
</svg>
