<svg xmlns="http://www.w3.org/2000/svg" width="43.775" height="43.775" viewBox="0 0 43.775 43.775">
  <g id="_1161953_instagram_icon" data-name="1161953_instagram_icon" transform="translate(-42.5 -60)">
    <path id="Path_143" data-name="Path 143" d="M203.8,208.75a11.3,11.3,0,1,0,11.3,11.3A11.319,11.319,0,0,0,203.8,208.75Zm0,18.534a7.237,7.237,0,1,1,7.237-7.237A7.27,7.27,0,0,1,203.8,227.284Z" transform="translate(-139.409 -138.248)" fill="#fffdfa"/>
    <circle id="Ellipse_1" data-name="Ellipse 1" cx="2.559" cy="2.559" r="2.559" transform="translate(73.566 67.678)" fill="#fffdfa"/>
    <path id="Path_144" data-name="Path 144" d="M82.745,63.618A12.569,12.569,0,0,0,73.478,60H55.3c-7.678,0-12.8,5.119-12.8,12.8V90.89a12.7,12.7,0,0,0,3.707,9.443,12.88,12.88,0,0,0,9.179,3.442h18a13.032,13.032,0,0,0,9.267-3.442,12.635,12.635,0,0,0,3.618-9.355V72.8A12.652,12.652,0,0,0,82.745,63.618Zm-.353,27.359a8.624,8.624,0,0,1-2.559,6.443,9.123,9.123,0,0,1-6.443,2.295h-18a9.123,9.123,0,0,1-6.443-2.295A8.871,8.871,0,0,1,46.56,90.89V72.8a8.8,8.8,0,0,1,2.383-6.443,8.975,8.975,0,0,1,6.443-2.295H73.566a8.8,8.8,0,0,1,6.443,2.383A9.107,9.107,0,0,1,82.392,72.8V90.978Z" fill="#fffdfa"/>
  </g>
</svg>
