<svg xmlns="http://www.w3.org/2000/svg" xmlns:xlink="http://www.w3.org/1999/xlink" width="153.031" height="24" viewBox="0 0 153.031 24">
  <defs>
    <clipPath id="clip-path">
      <rect id="Rectangle_113" data-name="Rectangle 113" width="153.031" height="24" fill="#fffdfa"/>
    </clipPath>
  </defs>
  <g id="Group_67" data-name="Group 67" transform="translate(0 0)">
    <g id="Group_66" data-name="Group 66" transform="translate(0 0)" clip-path="url(#clip-path)">
      <path id="Path_139" data-name="Path 139" d="M23.176.824a.391.391,0,0,1,0,.256c-.05.121-.191.476-.191.476a1.638,1.638,0,0,1-.189.274L22.63,2l-.342.393L20.32,4.275l-.186.187-.613.593a.418.418,0,0,0-.045.195v.6a.226.226,0,0,1-.061.177c-.072.068-.827.631-.827.631s-.079.068-.144.661l-.712,5.362.236,8.555c.4,2.224.364,2.557.288,2.631a2.541,2.541,0,0,1-.847.132,3.783,3.783,0,0,1-.867-.059c-.16-.058-.061-.425-.061-.425l.068-.193.267-.724-2.783,0a.09.09,0,0,1-.058-.088,1.448,1.448,0,0,1,.11-.252.234.234,0,0,1,.1-.115l1.865-.9L14.881,17.61l-.611-5.477-.267-.1a.077.077,0,0,1-.081-.077l-.151-5.012a.22.22,0,0,0-.059-.169s-.834-.679-.887-.732a.172.172,0,0,1-.045-.126s.009-.269.009-.353a.3.3,0,0,0-.032-.141l-.447-.433L10.754,3.6l-.018-.007-.953-.851L9.62,2.576A2.122,2.122,0,0,1,9.426,2.3l-.187-.726L9.669.808C9.741.681,9.86.781,9.86.781s.366.274.564.407a.382.382,0,0,1,.186.369c0,.085.063.58.063.58a.343.343,0,0,0,.121.27l2.565,1.9,1.265.757.919-.081.041-.78a2.66,2.66,0,0,1-.467-.144.4.4,0,0,1-.171-.279,5.535,5.535,0,0,1,.209-1.9c.178-.58.62-1.157,1.063-1.063a2.222,2.222,0,0,1,1.249.642.732.732,0,0,1,.168.413c.038.128.049.205.063.252l.094.3a.6.6,0,0,0,.281.341.448.448,0,0,1-.211.072.231.231,0,0,1-.189-.072,1.572,1.572,0,0,0,.05.166.451.451,0,0,0,.157.223,1.7,1.7,0,0,0,.175.124s-.139.132-.231.13c-.045,0,.02.072.065.121a1.923,1.923,0,0,0,.249.178,1.277,1.277,0,0,1-.108.1.386.386,0,0,1-.241.072.728.728,0,0,1-.263-.1,1.628,1.628,0,0,0-.018.195.733.733,0,0,0,.054.205.721.721,0,0,1-.241.027,1.094,1.094,0,0,1-.261-.157L17,4.731l1-.481.4-.094,3.228-2.5a.5.5,0,0,0,.115-.261S21.8.9,21.8.813a.379.379,0,0,1,.182-.369c.2-.13.568-.407.568-.407s.119-.1.187.029l.433.761ZM0,4.239H5.619v12h7.9v4.8H0V4.239Zm21.153,0h6.29l3.267,9.436,3.266-9.436h6.194L33.35,21.165H27.972Zm19.184,0H54.67v4.61H45.857v1.7H54.07v4.057H45.859v1.826h8.932v4.61H40.337V4.239Zm21.1,0H66.7l5.978,7.42V4.237h5.571V21.045H73.254l-6.243-7.759v7.757H61.443V4.237ZM89.59,14.8l-1.537-4.082L86.517,14.8ZM85.317,4.115h5.569l7.083,16.928h-6.1l-.888-2.256H85.1l-.865,2.256h-6L85.317,4.115M94.182,8.99V4.237h15.51V8.991h-4.945V21.045H99.123V8.991H94.178Zm16.351,12.053V4.237h5.617V21.045h-5.619Zm19.415-8.357v-.047a3.6,3.6,0,0,0-3.529-3.794,3.545,3.545,0,0,0-3.482,3.745v.049a3.6,3.6,0,0,0,3.531,3.794,3.545,3.545,0,0,0,3.48-3.747m-12.677,0v-.047a9.183,9.183,0,0,1,18.345-.049v.049a9.183,9.183,0,0,1-18.345.047m18.954-8.452h5.257l5.98,7.421V4.237h5.569V21.045h-4.992l-6.246-7.759v7.757h-5.571V4.237Z" transform="translate(0 -0.001)" fill="#fffdfa" fill-rule="evenodd"/>
    </g>
  </g>
</svg>
