<?xml version="1.0" encoding="utf-8"?>
<!-- Generator: Adobe Illustrator 28.0.0, SVG Export Plug-In . SVG Version: 6.00 Build 0)  -->
<svg version="1.1" id="Layer_1" xmlns="http://www.w3.org/2000/svg" xmlns:xlink="http://www.w3.org/1999/xlink" x="0px" y="0px"
	 viewBox="0 0 122.8 31" style="enable-background:new 0 0 122.8 31;" xml:space="preserve">
<style type="text/css">
	.st0{fill:#FFD700;}
</style>
<g id="Group_82" transform="translate(0 0)">
	<path id="Path_146" class="st0" d="M0,0V31h12.8v-6H6.3v-7.1h5.8V12H6.3V6h6.1V0H0z"/>
	<path id="Path_147" class="st0" d="M24,0l-2,21.1L19.7,0h-5.9l3.8,31h8.4l3.8-31H24z"/>
	<path id="Path_148" class="st0" d="M31.7,0V31h12.8v-6H38v-7.1h5.8V12H38V6h6.1V0H31.7z"/>
	<path id="Path_149" class="st0" d="M55.7,0v14.8L52.9,0h-6.4V31h6V15.5L55.7,31h6V0H55.7z"/>
	<path id="Path_150" class="st0" d="M63.4,0V6h3.7v25h6.2V6H77V0H63.4z"/>
	<path id="Path_151" class="st0" d="M78.7,0V31h12.8v-6H85v-7.1h5.8V12H85V6h6.1V0H78.7z"/>
	<path id="Path_152" class="st0" d="M93.4,0v5.7h6.4l-7.1,19.6V31H106v-5.7h-6.9l7.2-19.8V0H93.4z"/>
	<path id="Path_153" class="st0" d="M116.7,0l-1.7,10.5L113.2,0h-6.1l4.9,20.8V31h5.8V20.8L122.8,0H116.7z"/>
</g>
</svg>
