<svg xmlns="http://www.w3.org/2000/svg" xmlns:xlink="http://www.w3.org/1999/xlink" width="169.406" height="24" viewBox="0 0 169.406 24">
  <defs>
    <clipPath id="clip-path">
      <rect id="Rectangle_115" data-name="Rectangle 115" width="169.406" height="24" fill="#fffdfa"/>
    </clipPath>
  </defs>
  <g id="Group_71" data-name="Group 71" transform="translate(0 0)">
    <g id="Group_70" data-name="Group 70" transform="translate(0 0)" clip-path="url(#clip-path)">
      <path id="Path_141" data-name="Path 141" d="M108.622,4.141A11.335,11.335,0,0,0,107.49,9.67c0,5.529.126,12.94.126,13.193,0,.382.126.632.629.759a9.234,9.234,0,0,0,2.506.253,11.948,11.948,0,0,0,2.856-.253c.5-.253.473-.632.473-.632V10.05c0-2.514,2.144-3.82,4.664-3.467l.147.041c1.75.353,2,.268,2.514-.491a26.778,26.778,0,0,0,1.873-4.252c.126-.379-.1-.673-.629-.87a18.1,18.1,0,0,0-2.758-.756A17.492,17.492,0,0,0,117.039,0c-3.441,0-6.555,1.179-8.417,4.141M.741.239a.7.7,0,0,0-.615.785C.126,1.151,0,8.282,0,13.664v.062a9.675,9.675,0,0,0,1.132,5.123c1.879,3.273,5.138,5.011,9.522,5.011h.124c4.4,0,7.77-1.753,9.631-5.011a9.616,9.616,0,0,0,1.132-5.123c0-5.388-.126-12.478-.126-12.728a.763.763,0,0,0-.6-.759A11.644,11.644,0,0,0,18.283.027,12.741,12.741,0,0,0,15.41.254c-.5.112-.5.744-.5.744.124,4.391,0,11.716,0,12.351,0,2.635-1.879,4.011-4.255,4.011S6.4,15.984,6.385,13.346c0-.618.012-8.055.012-12.448,0,0,0-.435-.629-.647A8.671,8.671,0,0,0,3.247,0a9.747,9.747,0,0,0-2.5.235ZM76.376,1.262c-.365.506-3.991,9.925-4.985,12.56-.124.129-.5.129-.5,0-.756-2.006-4.494-11.928-4.746-12.56-.5-1-.756-1.247-3.373-1.247-1.244,0-3,.112-3,.87s2.129,6.4,4.494,12.546c2.241,5.767,3.935,9.431,4.367,9.937s1.641.491,2.773.506,2.282.015,2.576-.491A98.18,98.18,0,0,0,78.376,13.32c2.367-6.146,4.37-11.678,4.37-12.434,0-.87-1.753-.87-3-.87-2.617,0-2.867.235-3.37,1.247M35.625,0c-4.244,0-7.6,1.7-9.716,5.093a10.178,10.178,0,0,0-1.12,5.235c0,5.432.126,12.463.126,12.716a.789.789,0,0,0,.618.632,15.877,15.877,0,0,0,2.617.182,12.207,12.207,0,0,0,2.617-.153c.444-.141.485-.732.485-.732-.126-4.42.012-12,.012-12.631a4.191,4.191,0,0,1,4.373-4.282,4.022,4.022,0,0,1,4.255,4.282V22.989a.742.742,0,0,0,.476.632,9.861,9.861,0,0,0,2.729.224,11.447,11.447,0,0,0,2.494-.126c.488-.126.615-.365.615-.744,0-.126.126-7.311.126-12.731a9.827,9.827,0,0,0-1.12-5.135C43.336,1.7,40.1,0,35.737,0h-.112M51.132.139A.692.692,0,0,0,50.514.9c0,.126-.124,1.517-.124,10.793,0,9.672.126,10.919.126,11.046a.849.849,0,0,0,.618.926,16.672,16.672,0,0,0,2.714.2,10.2,10.2,0,0,0,2.506-.2c.462-.2.618-.376.618-.759,0-.126.124-1.57.124-11.228,0-9.275-.126-10.666-.126-10.793a.664.664,0,0,0-.618-.756A24.153,24.153,0,0,0,53.623,0a10.46,10.46,0,0,0-2.491.138m73.379,7.523c0,5.264,4.829,6.626,9.464,7.005l.432.041c1.75.126,3.641.241,3.641,1.994,0,1.376-.77,2.135-2.9,2.135a18.762,18.762,0,0,1-7.517-2.135,15.508,15.508,0,0,0-1.876-1.012,5.181,5.181,0,0,0-1.873,1.756c-.632,1.012-1.009,2.132-.756,2.511.629.759,2.632,1.756,4.635,2.511a20.213,20.213,0,0,0,7.011,1.379c6.258,0,10.387-2.882,10.387-7.793.253-6.02-5.893-7.017-10.4-7.14-1.009,0-3.008-.256-3.008-1.994,0-1.756,1.273-1.882,2.647-1.882a23.393,23.393,0,0,1,5.011.87c1.623.506,2.756,1.012,3.135,1.138.376.25,1.132-.759,1.75-2.009s.753-2.385.376-2.511A26.26,26.26,0,0,0,134.031.015c-4.508,0-9.519,2.006-9.519,7.646M147.4,11.423C147.4,4.518,151.767,0,158.5,0c5.74,0,10.875,3.017,10.875,11.422,0,.885-.015,1.123.029,1.994-.015.559-.447.759-.994.759-1.262,0-4,.126-7.867.126-2.382,0-5.305-.126-6.426-.126-.168,0-.194.059-.182.182a5.367,5.367,0,0,0,5.335,3.97,17.038,17.038,0,0,0,6.229-1.373c.618-.253.838-.156.994,0a9.106,9.106,0,0,1,1.244,2.009c.379.868.632,1.5.756,1.882.112.5,0,.629-.756,1.009a17.742,17.742,0,0,1-8.861,2.006A12.134,12.134,0,0,1,147.4,11.423m6.482-2.059,9.449.024a.246.246,0,0,0,.279-.279c0-2.385-2.223-4.252-4.97-4.252s-5.011,1.867-5.011,4.252a.248.248,0,0,0,.253.253Zm-71.153,2.2C82.728,4.659,87.1.139,93.827.139c5.74,0,10.881,3.017,10.881,11.425,0,.885-.018,1.123.026,1.994-.015.559-.45.759-.994.759-1.259,0-4.005.124-7.87.124-2.379,0-5.305-.124-6.423-.124-.171,0-.2.056-.182.182a5.366,5.366,0,0,0,5.332,3.97,17.134,17.134,0,0,0,6.229-1.373c.618-.253.841-.156.994,0a9.078,9.078,0,0,1,1.247,2.006c.376.87.629,1.5.756,1.882.112.506,0,.629-.756,1.012A17.742,17.742,0,0,1,94.206,24,12.134,12.134,0,0,1,82.728,11.564M89.21,9.5l9.449.029a.26.26,0,0,0,.294-.271C98.953,6.879,96.712,5,93.968,5S88.957,6.862,88.957,9.25a.248.248,0,0,0,.253.253" transform="translate(0 -0.002)" fill="#fffdfa"/>
    </g>
  </g>
</svg>
