<svg xmlns="http://www.w3.org/2000/svg" width="260" height="65.551" viewBox="0 0 260 65.551">
  <g id="Group_43" data-name="Group 43" transform="translate(0 0)">
    <path id="Path_108" data-name="Path 108" d="M0,.018V65.528H27.06V52.762H13.326v-15H25.684V25.441H13.326V12.674H26.2V.018Z" transform="translate(0 0.02)" fill="#fffdfa"/>
    <path id="Path_109" data-name="Path 109" d="M35.4,0l-4.28,44.594L26.322,0H13.852l8.076,65.551H39.8L47.873,0Z" transform="translate(15.48)" fill="#fffdfa"/>
    <path id="Path_110" data-name="Path 110" d="M31.711.018V65.528H58.773V52.762H45.038v-15H57.394V25.441H45.038V12.674H57.915V.018Z" transform="translate(35.438 0.02)" fill="#fffdfa"/>
    <path id="Path_111" data-name="Path 111" d="M66.036.018V31.4L60,.018H46.529V65.528H59.336V32.774l6.55,32.754h12.8V.018Z" transform="translate(51.998 0.02)" fill="#fffdfa"/>
    <path id="Path_112" data-name="Path 112" d="M63.439.018V12.6h7.78V65.528h13.1V12.6H92.1V.018Z" transform="translate(70.897 0.02)" fill="#fffdfa"/>
    <path id="Path_113" data-name="Path 113" d="M78.7.018V65.528h27.062V52.762H92.025v-15h12.356V25.441H92.025V12.674H104.9V.018Z" transform="translate(87.948 0.02)" fill="#fffdfa"/>
    <path id="Path_114" data-name="Path 114" d="M94.16.018V12.077h13.548l-15,41.54V65.528h28.178V53.469h-14.63l15.261-41.987V.018Z" transform="translate(103.605 0.02)" fill="#fffdfa"/>
    <path id="Path_115" data-name="Path 115" d="M127.373.018,123.725,22.2,120.078.018H107.085l10.463,43.958V65.528H129.9V43.976L140.326.018Z" transform="translate(119.674 0.02)" fill="#fffdfa"/>
  </g>
</svg>
