<svg xmlns="http://www.w3.org/2000/svg" width="122.783" height="30.956" viewBox="0 0 122.783 30.956">
  <g id="Group_82" data-name="Group 82" transform="translate(0 0)">
    <path id="Path_146" data-name="Path 146" d="M0,.017V30.955H12.779V24.926H6.293V17.842h5.836V12.024H6.293V6h6.082V.017Z" fill="#fffefa"/>
    <path id="Path_147" data-name="Path 147" d="M24.029,0,22.008,21.059,19.741,0H13.852l3.814,30.956H26.1L29.918,0Z" fill="#fffefa"/>
    <path id="Path_148" data-name="Path 148" d="M31.711.017V30.955h12.78V24.926H38V17.842H43.84V12.024H38V6h6.081V.017Z" fill="#fffefa"/>
    <path id="Path_149" data-name="Path 149" d="M55.741.017V14.836L52.893.017H46.529V30.955h6.048V15.487L55.67,30.955h6.047V.017Z" fill="#fffefa"/>
    <path id="Path_150" data-name="Path 150" d="M63.439.017V5.96h3.674V30.955H73.3V5.96h3.674V.017Z" fill="#fffefa"/>
    <path id="Path_151" data-name="Path 151" d="M78.7.017V30.955h12.78V24.926H84.991V17.842h5.835V12.024H84.991V6h6.081V.017Z" fill="#fffefa"/>
    <path id="Path_152" data-name="Path 152" d="M93.393.017v5.7h6.4L92.707,25.33v5.625h13.307V25.26H99.1l7.207-19.829V.017Z" fill="#fffefa"/>
    <path id="Path_153" data-name="Path 153" d="M116.666.017,114.943,10.5,113.221.017h-6.136l4.941,20.76V30.955h5.835V20.777L122.783.017Z" fill="#fffefa"/>
  </g>
</svg>
