<svg id="Group_69" data-name="Group 69" xmlns="http://www.w3.org/2000/svg" xmlns:xlink="http://www.w3.org/1999/xlink" width="130.345" height="28" viewBox="0 0 130.345 28">
  <defs>
    <clipPath id="clip-path">
      <rect id="Rectangle_114" data-name="Rectangle 114" width="130.345" height="28" fill="#fffdfa"/>
    </clipPath>
  </defs>
  <g id="Group_68" data-name="Group 68" clip-path="url(#clip-path)">
    <path id="Path_140" data-name="Path 140" d="M96.058,13.21a8.133,8.133,0,0,0,8.491,8.112,9.326,9.326,0,0,0,7.162-3.754l-2.8-1.559a5.471,5.471,0,0,1-4.453,2.385,4.635,4.635,0,0,1-4.707-4.04h12.789v-.6A8.282,8.282,0,0,0,104.55,5.1a8.131,8.131,0,0,0-8.491,8.111m-83.8,7.677h3.307V5.49H12.265v15.4Zm5.3-7.677a8.132,8.132,0,0,0,8.494,8.111,8.225,8.225,0,0,0,6.89-3.721l-2.891-1.719a4.573,4.573,0,0,1-4,2.322,4.906,4.906,0,0,1-5-4.993,4.906,4.906,0,0,1,5-5,4.562,4.562,0,0,1,4,2.324L32.948,8.82A7.944,7.944,0,0,0,26.058,5.1a8.135,8.135,0,0,0-8.5,8.112m17.2-12.175v19.85h3.307V14.329l6.442,6.556h4.014L40.77,13.227l6.42-7.358H43.647l-5.574,6.163v-11H34.765M2.681,2.29V5.385H0V8.447H2.681v8.69a3.531,3.531,0,0,0,3.79,3.714H8.315V17.8H7.07c-.825,0-1.147-.4-1.147-1.168V8.443h4.188V5.383H5.923V2.292H2.681m44.7,11.1a7.948,7.948,0,0,0,8.3,7.929,9.117,9.117,0,0,0,7-3.67l-2.737-1.526a5.346,5.346,0,0,1-4.352,2.335,4.529,4.529,0,0,1-4.6-3.951h12.5v-.589a8.094,8.094,0,0,0-7.8-8.456,7.948,7.948,0,0,0-8.3,7.928M114.31,1.1V20.86h3.269V19.005h.065a6.253,6.253,0,0,0,5,2.267,7.855,7.855,0,0,0,7.9-8.022,8.152,8.152,0,0,0-8.055-8.022,5.674,5.674,0,0,0-4.843,2.265h-.065V1.1Zm3.145,12.147a4.815,4.815,0,1,1,4.781,4.938,4.895,4.895,0,0,1-4.781-4.938m-62.2-4.925A4.527,4.527,0,0,1,59.7,11.838H50.99a4.274,4.274,0,0,1,4.261-3.513m48.856-.3a4.631,4.631,0,0,1,4.549,3.593H99.747a4.372,4.372,0,0,1,4.359-3.593M66.783,2.29V5.385H64.1l0,3.062h2.685v8.69a3.53,3.53,0,0,0,3.789,3.714h1.843V17.8H71.168c-.819,0-1.144-.4-1.144-1.172V8.447h4.348l6.683,18.516h.687l3.3-7.95h.065l3.3,7.95H89.1l4.53-12.6h5.762V11.613h-8.3l-2.732,8.259h-.063L85.438,12.61l-.724,0-2.851,7.265H81.8L76.642,5.383H70.024V2.294H66.781" transform="translate(0 0.77)" fill="#fffdfa"/>
  </g>
</svg>
